# xmcd CD database file
#
# Track frame offsets:
#	187
#	62580
#	112527
#
# Disc length: 1812 seconds
#
# Revision: 0
# Processed by: cddbd v1.5.1PL0 Copyright (c) Steve Scherf et al.
# Submitted via: CDex 1.51
#
DISCID=17071203
DTITLE=John Coltrane - The Believer
DYEAR=1958
DGENRE=Jazz
TTITLE0=The Believer
TTITLE1=Nakatini Serenade
TTITLE2=Do I Love You Because You're Beautiful
EXTD=YEAR: 1958
EXTT0=
EXTT1=
EXTT2=
PLAYORDER=
